<?xml version="1.0" encoding="utf-8" standalone="no"?>
<!DOCTYPE svg PUBLIC "-//W3C//DTD SVG 1.1//EN"
  "http://www.w3.org/Graphics/SVG/1.1/DTD/svg11.dtd">
<!-- Created with matplotlib (http://matplotlib.org/) -->
<svg height="345.6pt" version="1.1" viewBox="0 0 460.8 345.6" width="460.8pt" xmlns="http://www.w3.org/2000/svg" xmlns:xlink="http://www.w3.org/1999/xlink">
 <defs>
  <style type="text/css">
*{stroke-linecap:butt;stroke-linejoin:round;}
  </style>
 </defs>
 <g id="figure_1">
  <g id="patch_1">
   <path d="M 0 345.6 
L 460.8 345.6 
L 460.8 0 
L 0 0 
z
" style="fill:#ffffff;"/>
  </g>
  <g id="axes_1">
   <g id="patch_2">
    <path d="M 57.6 307.584 
L 414.72 307.584 
L 414.72 41.472 
L 57.6 41.472 
z
" style="fill:#ffffff;"/>
   </g>
   <g id="matplotlib.axis_1">
    <g id="xtick_1">
     <g id="line2d_1">
      <defs>
       <path d="M 0 0 
L 0 3.5 
" id="m6942bcf89b" style="stroke:#000000;stroke-width:0.8;"/>
      </defs>
      <g>
       <use style="stroke:#000000;stroke-width:0.8;" x="73.832727" xlink:href="#m6942bcf89b" y="307.584"/>
      </g>
     </g>
     <g id="text_1">
      <!-- 0 -->
      <defs>
       <path d="M 31.78125 66.40625 
Q 24.171875 66.40625 20.328125 58.90625 
Q 16.5 51.421875 16.5 36.375 
Q 16.5 21.390625 20.328125 13.890625 
Q 24.171875 6.390625 31.78125 6.390625 
Q 39.453125 6.390625 43.28125 13.890625 
Q 47.125 21.390625 47.125 36.375 
Q 47.125 51.421875 43.28125 58.90625 
Q 39.453125 66.40625 31.78125 66.40625 
z
M 31.78125 74.21875 
Q 44.046875 74.21875 50.515625 64.515625 
Q 56.984375 54.828125 56.984375 36.375 
Q 56.984375 17.96875 50.515625 8.265625 
Q 44.046875 -1.421875 31.78125 -1.421875 
Q 19.53125 -1.421875 13.0625 8.265625 
Q 6.59375 17.96875 6.59375 36.375 
Q 6.59375 54.828125 13.0625 64.515625 
Q 19.53125 74.21875 31.78125 74.21875 
z
" id="DejaVuSans-30"/>
      </defs>
      <g transform="translate(70.651477 322.182437)scale(0.1 -0.1)">
       <use xlink:href="#DejaVuSans-30"/>
      </g>
     </g>
    </g>
    <g id="xtick_2">
     <g id="line2d_2">
      <g>
       <use style="stroke:#000000;stroke-width:0.8;" x="106.428565" xlink:href="#m6942bcf89b" y="307.584"/>
      </g>
     </g>
     <g id="text_2">
      <!-- 25 -->
      <defs>
       <path d="M 19.1875 8.296875 
L 53.609375 8.296875 
L 53.609375 0 
L 7.328125 0 
L 7.328125 8.296875 
Q 12.9375 14.109375 22.625 23.890625 
Q 32.328125 33.6875 34.8125 36.53125 
Q 39.546875 41.84375 41.421875 45.53125 
Q 43.3125 49.21875 43.3125 52.78125 
Q 43.3125 58.59375 39.234375 62.25 
Q 35.15625 65.921875 28.609375 65.921875 
Q 23.96875 65.921875 18.8125 64.3125 
Q 13.671875 62.703125 7.8125 59.421875 
L 7.8125 69.390625 
Q 13.765625 71.78125 18.9375 73 
Q 24.125 74.21875 28.421875 74.21875 
Q 39.75 74.21875 46.484375 68.546875 
Q 53.21875 62.890625 53.21875 53.421875 
Q 53.21875 48.921875 51.53125 44.890625 
Q 49.859375 40.875 45.40625 35.40625 
Q 44.1875 33.984375 37.640625 27.21875 
Q 31.109375 20.453125 19.1875 8.296875 
z
" id="DejaVuSans-32"/>
       <path d="M 10.796875 72.90625 
L 49.515625 72.90625 
L 49.515625 64.59375 
L 19.828125 64.59375 
L 19.828125 46.734375 
Q 21.96875 47.46875 24.109375 47.828125 
Q 26.265625 48.1875 28.421875 48.1875 
Q 40.625 48.1875 47.75 41.5 
Q 54.890625 34.8125 54.890625 23.390625 
Q 54.890625 11.625 47.5625 5.09375 
Q 40.234375 -1.421875 26.90625 -1.421875 
Q 22.3125 -1.421875 17.546875 -0.640625 
Q 12.796875 0.140625 7.71875 1.703125 
L 7.71875 11.625 
Q 12.109375 9.234375 16.796875 8.0625 
Q 21.484375 6.890625 26.703125 6.890625 
Q 35.15625 6.890625 40.078125 11.328125 
Q 45.015625 15.765625 45.015625 23.390625 
Q 45.015625 31 40.078125 35.4375 
Q 35.15625 39.890625 26.703125 39.890625 
Q 22.75 39.890625 18.8125 39.015625 
Q 14.890625 38.140625 10.796875 36.28125 
z
" id="DejaVuSans-35"/>
      </defs>
      <g transform="translate(100.066065 322.182437)scale(0.1 -0.1)">
       <use xlink:href="#DejaVuSans-32"/>
       <use x="63.623047" xlink:href="#DejaVuSans-35"/>
      </g>
     </g>
    </g>
    <g id="xtick_3">
     <g id="line2d_3">
      <g>
       <use style="stroke:#000000;stroke-width:0.8;" x="139.024403" xlink:href="#m6942bcf89b" y="307.584"/>
      </g>
     </g>
     <g id="text_3">
      <!-- 50 -->
      <g transform="translate(132.661903 322.182437)scale(0.1 -0.1)">
       <use xlink:href="#DejaVuSans-35"/>
       <use x="63.623047" xlink:href="#DejaVuSans-30"/>
      </g>
     </g>
    </g>
    <g id="xtick_4">
     <g id="line2d_4">
      <g>
       <use style="stroke:#000000;stroke-width:0.8;" x="171.620241" xlink:href="#m6942bcf89b" y="307.584"/>
      </g>
     </g>
     <g id="text_4">
      <!-- 75 -->
      <defs>
       <path d="M 8.203125 72.90625 
L 55.078125 72.90625 
L 55.078125 68.703125 
L 28.609375 0 
L 18.3125 0 
L 43.21875 64.59375 
L 8.203125 64.59375 
z
" id="DejaVuSans-37"/>
      </defs>
      <g transform="translate(165.257741 322.182437)scale(0.1 -0.1)">
       <use xlink:href="#DejaVuSans-37"/>
       <use x="63.623047" xlink:href="#DejaVuSans-35"/>
      </g>
     </g>
    </g>
    <g id="xtick_5">
     <g id="line2d_5">
      <g>
       <use style="stroke:#000000;stroke-width:0.8;" x="204.216079" xlink:href="#m6942bcf89b" y="307.584"/>
      </g>
     </g>
     <g id="text_5">
      <!-- 100 -->
      <defs>
       <path d="M 12.40625 8.296875 
L 28.515625 8.296875 
L 28.515625 63.921875 
L 10.984375 60.40625 
L 10.984375 69.390625 
L 28.421875 72.90625 
L 38.28125 72.90625 
L 38.28125 8.296875 
L 54.390625 8.296875 
L 54.390625 0 
L 12.40625 0 
z
" id="DejaVuSans-31"/>
      </defs>
      <g transform="translate(194.672329 322.182437)scale(0.1 -0.1)">
       <use xlink:href="#DejaVuSans-31"/>
       <use x="63.623047" xlink:href="#DejaVuSans-30"/>
       <use x="127.246094" xlink:href="#DejaVuSans-30"/>
      </g>
     </g>
    </g>
    <g id="xtick_6">
     <g id="line2d_6">
      <g>
       <use style="stroke:#000000;stroke-width:0.8;" x="236.811917" xlink:href="#m6942bcf89b" y="307.584"/>
      </g>
     </g>
     <g id="text_6">
      <!-- 125 -->
      <g transform="translate(227.268167 322.182437)scale(0.1 -0.1)">
       <use xlink:href="#DejaVuSans-31"/>
       <use x="63.623047" xlink:href="#DejaVuSans-32"/>
       <use x="127.246094" xlink:href="#DejaVuSans-35"/>
      </g>
     </g>
    </g>
    <g id="xtick_7">
     <g id="line2d_7">
      <g>
       <use style="stroke:#000000;stroke-width:0.8;" x="269.407755" xlink:href="#m6942bcf89b" y="307.584"/>
      </g>
     </g>
     <g id="text_7">
      <!-- 150 -->
      <g transform="translate(259.864005 322.182437)scale(0.1 -0.1)">
       <use xlink:href="#DejaVuSans-31"/>
       <use x="63.623047" xlink:href="#DejaVuSans-35"/>
       <use x="127.246094" xlink:href="#DejaVuSans-30"/>
      </g>
     </g>
    </g>
    <g id="xtick_8">
     <g id="line2d_8">
      <g>
       <use style="stroke:#000000;stroke-width:0.8;" x="302.003593" xlink:href="#m6942bcf89b" y="307.584"/>
      </g>
     </g>
     <g id="text_8">
      <!-- 175 -->
      <g transform="translate(292.459843 322.182437)scale(0.1 -0.1)">
       <use xlink:href="#DejaVuSans-31"/>
       <use x="63.623047" xlink:href="#DejaVuSans-37"/>
       <use x="127.246094" xlink:href="#DejaVuSans-35"/>
      </g>
     </g>
    </g>
    <g id="xtick_9">
     <g id="line2d_9">
      <g>
       <use style="stroke:#000000;stroke-width:0.8;" x="334.59943" xlink:href="#m6942bcf89b" y="307.584"/>
      </g>
     </g>
     <g id="text_9">
      <!-- 200 -->
      <g transform="translate(325.05568 322.182437)scale(0.1 -0.1)">
       <use xlink:href="#DejaVuSans-32"/>
       <use x="63.623047" xlink:href="#DejaVuSans-30"/>
       <use x="127.246094" xlink:href="#DejaVuSans-30"/>
      </g>
     </g>
    </g>
    <g id="xtick_10">
     <g id="line2d_10">
      <g>
       <use style="stroke:#000000;stroke-width:0.8;" x="367.195268" xlink:href="#m6942bcf89b" y="307.584"/>
      </g>
     </g>
     <g id="text_10">
      <!-- 225 -->
      <g transform="translate(357.651518 322.182437)scale(0.1 -0.1)">
       <use xlink:href="#DejaVuSans-32"/>
       <use x="63.623047" xlink:href="#DejaVuSans-32"/>
       <use x="127.246094" xlink:href="#DejaVuSans-35"/>
      </g>
     </g>
    </g>
    <g id="xtick_11">
     <g id="line2d_11">
      <g>
       <use style="stroke:#000000;stroke-width:0.8;" x="399.791106" xlink:href="#m6942bcf89b" y="307.584"/>
      </g>
     </g>
     <g id="text_11">
      <!-- 250 -->
      <g transform="translate(390.247356 322.182437)scale(0.1 -0.1)">
       <use xlink:href="#DejaVuSans-32"/>
       <use x="63.623047" xlink:href="#DejaVuSans-35"/>
       <use x="127.246094" xlink:href="#DejaVuSans-30"/>
      </g>
     </g>
    </g>
    <g id="text_12">
     <!-- Epoch -->
     <defs>
      <path d="M 9.8125 72.90625 
L 55.90625 72.90625 
L 55.90625 64.59375 
L 19.671875 64.59375 
L 19.671875 43.015625 
L 54.390625 43.015625 
L 54.390625 34.71875 
L 19.671875 34.71875 
L 19.671875 8.296875 
L 56.78125 8.296875 
L 56.78125 0 
L 9.8125 0 
z
" id="DejaVuSans-45"/>
      <path d="M 18.109375 8.203125 
L 18.109375 -20.796875 
L 9.078125 -20.796875 
L 9.078125 54.6875 
L 18.109375 54.6875 
L 18.109375 46.390625 
Q 20.953125 51.265625 25.265625 53.625 
Q 29.59375 56 35.59375 56 
Q 45.5625 56 51.78125 48.09375 
Q 58.015625 40.1875 58.015625 27.296875 
Q 58.015625 14.40625 51.78125 6.484375 
Q 45.5625 -1.421875 35.59375 -1.421875 
Q 29.59375 -1.421875 25.265625 0.953125 
Q 20.953125 3.328125 18.109375 8.203125 
z
M 48.6875 27.296875 
Q 48.6875 37.203125 44.609375 42.84375 
Q 40.53125 48.484375 33.40625 48.484375 
Q 26.265625 48.484375 22.1875 42.84375 
Q 18.109375 37.203125 18.109375 27.296875 
Q 18.109375 17.390625 22.1875 11.75 
Q 26.265625 6.109375 33.40625 6.109375 
Q 40.53125 6.109375 44.609375 11.75 
Q 48.6875 17.390625 48.6875 27.296875 
z
" id="DejaVuSans-70"/>
      <path d="M 30.609375 48.390625 
Q 23.390625 48.390625 19.1875 42.75 
Q 14.984375 37.109375 14.984375 27.296875 
Q 14.984375 17.484375 19.15625 11.84375 
Q 23.34375 6.203125 30.609375 6.203125 
Q 37.796875 6.203125 41.984375 11.859375 
Q 46.1875 17.53125 46.1875 27.296875 
Q 46.1875 37.015625 41.984375 42.703125 
Q 37.796875 48.390625 30.609375 48.390625 
z
M 30.609375 56 
Q 42.328125 56 49.015625 48.375 
Q 55.71875 40.765625 55.71875 27.296875 
Q 55.71875 13.875 49.015625 6.21875 
Q 42.328125 -1.421875 30.609375 -1.421875 
Q 18.84375 -1.421875 12.171875 6.21875 
Q 5.515625 13.875 5.515625 27.296875 
Q 5.515625 40.765625 12.171875 48.375 
Q 18.84375 56 30.609375 56 
z
" id="DejaVuSans-6f"/>
      <path d="M 48.78125 52.59375 
L 48.78125 44.1875 
Q 44.96875 46.296875 41.140625 47.34375 
Q 37.3125 48.390625 33.40625 48.390625 
Q 24.65625 48.390625 19.8125 42.84375 
Q 14.984375 37.3125 14.984375 27.296875 
Q 14.984375 17.28125 19.8125 11.734375 
Q 24.65625 6.203125 33.40625 6.203125 
Q 37.3125 6.203125 41.140625 7.25 
Q 44.96875 8.296875 48.78125 10.40625 
L 48.78125 2.09375 
Q 45.015625 0.34375 40.984375 -0.53125 
Q 36.96875 -1.421875 32.421875 -1.421875 
Q 20.0625 -1.421875 12.78125 6.34375 
Q 5.515625 14.109375 5.515625 27.296875 
Q 5.515625 40.671875 12.859375 48.328125 
Q 20.21875 56 33.015625 56 
Q 37.15625 56 41.109375 55.140625 
Q 45.0625 54.296875 48.78125 52.59375 
z
" id="DejaVuSans-63"/>
      <path d="M 54.890625 33.015625 
L 54.890625 0 
L 45.90625 0 
L 45.90625 32.71875 
Q 45.90625 40.484375 42.875 44.328125 
Q 39.84375 48.1875 33.796875 48.1875 
Q 26.515625 48.1875 22.3125 43.546875 
Q 18.109375 38.921875 18.109375 30.90625 
L 18.109375 0 
L 9.078125 0 
L 9.078125 75.984375 
L 18.109375 75.984375 
L 18.109375 46.1875 
Q 21.34375 51.125 25.703125 53.5625 
Q 30.078125 56 35.796875 56 
Q 45.21875 56 50.046875 50.171875 
Q 54.890625 44.34375 54.890625 33.015625 
z
" id="DejaVuSans-68"/>
     </defs>
     <g transform="translate(220.849063 335.860562)scale(0.1 -0.1)">
      <use xlink:href="#DejaVuSans-45"/>
      <use x="63.183594" xlink:href="#DejaVuSans-70"/>
      <use x="126.660156" xlink:href="#DejaVuSans-6f"/>
      <use x="187.841797" xlink:href="#DejaVuSans-63"/>
      <use x="242.822266" xlink:href="#DejaVuSans-68"/>
     </g>
    </g>
   </g>
   <g id="matplotlib.axis_2">
    <g id="ytick_1">
     <g id="line2d_12">
      <defs>
       <path d="M 0 0 
L -3.5 0 
" id="mf761690493" style="stroke:#000000;stroke-width:0.8;"/>
      </defs>
      <g>
       <use style="stroke:#000000;stroke-width:0.8;" x="57.6" xlink:href="#mf761690493" y="288.658305"/>
      </g>
     </g>
     <g id="text_13">
      <!-- 0.4 -->
      <defs>
       <path d="M 10.6875 12.40625 
L 21 12.40625 
L 21 0 
L 10.6875 0 
z
" id="DejaVuSans-2e"/>
       <path d="M 37.796875 64.3125 
L 12.890625 25.390625 
L 37.796875 25.390625 
z
M 35.203125 72.90625 
L 47.609375 72.90625 
L 47.609375 25.390625 
L 58.015625 25.390625 
L 58.015625 17.1875 
L 47.609375 17.1875 
L 47.609375 0 
L 37.796875 0 
L 37.796875 17.1875 
L 4.890625 17.1875 
L 4.890625 26.703125 
z
" id="DejaVuSans-34"/>
      </defs>
      <g transform="translate(34.696875 292.457523)scale(0.1 -0.1)">
       <use xlink:href="#DejaVuSans-30"/>
       <use x="63.623047" xlink:href="#DejaVuSans-2e"/>
       <use x="95.410156" xlink:href="#DejaVuSans-34"/>
      </g>
     </g>
    </g>
    <g id="ytick_2">
     <g id="line2d_13">
      <g>
       <use style="stroke:#000000;stroke-width:0.8;" x="57.6" xlink:href="#mf761690493" y="240.605785"/>
      </g>
     </g>
     <g id="text_14">
      <!-- 0.6 -->
      <defs>
       <path d="M 33.015625 40.375 
Q 26.375 40.375 22.484375 35.828125 
Q 18.609375 31.296875 18.609375 23.390625 
Q 18.609375 15.53125 22.484375 10.953125 
Q 26.375 6.390625 33.015625 6.390625 
Q 39.65625 6.390625 43.53125 10.953125 
Q 47.40625 15.53125 47.40625 23.390625 
Q 47.40625 31.296875 43.53125 35.828125 
Q 39.65625 40.375 33.015625 40.375 
z
M 52.59375 71.296875 
L 52.59375 62.3125 
Q 48.875 64.0625 45.09375 64.984375 
Q 41.3125 65.921875 37.59375 65.921875 
Q 27.828125 65.921875 22.671875 59.328125 
Q 17.53125 52.734375 16.796875 39.40625 
Q 19.671875 43.65625 24.015625 45.921875 
Q 28.375 48.1875 33.59375 48.1875 
Q 44.578125 48.1875 50.953125 41.515625 
Q 57.328125 34.859375 57.328125 23.390625 
Q 57.328125 12.15625 50.6875 5.359375 
Q 44.046875 -1.421875 33.015625 -1.421875 
Q 20.359375 -1.421875 13.671875 8.265625 
Q 6.984375 17.96875 6.984375 36.375 
Q 6.984375 53.65625 15.1875 63.9375 
Q 23.390625 74.21875 37.203125 74.21875 
Q 40.921875 74.21875 44.703125 73.484375 
Q 48.484375 72.75 52.59375 71.296875 
z
" id="DejaVuSans-36"/>
      </defs>
      <g transform="translate(34.696875 244.405004)scale(0.1 -0.1)">
       <use xlink:href="#DejaVuSans-30"/>
       <use x="63.623047" xlink:href="#DejaVuSans-2e"/>
       <use x="95.410156" xlink:href="#DejaVuSans-36"/>
      </g>
     </g>
    </g>
    <g id="ytick_3">
     <g id="line2d_14">
      <g>
       <use style="stroke:#000000;stroke-width:0.8;" x="57.6" xlink:href="#mf761690493" y="192.553265"/>
      </g>
     </g>
     <g id="text_15">
      <!-- 0.8 -->
      <defs>
       <path d="M 31.78125 34.625 
Q 24.75 34.625 20.71875 30.859375 
Q 16.703125 27.09375 16.703125 20.515625 
Q 16.703125 13.921875 20.71875 10.15625 
Q 24.75 6.390625 31.78125 6.390625 
Q 38.8125 6.390625 42.859375 10.171875 
Q 46.921875 13.96875 46.921875 20.515625 
Q 46.921875 27.09375 42.890625 30.859375 
Q 38.875 34.625 31.78125 34.625 
z
M 21.921875 38.8125 
Q 15.578125 40.375 12.03125 44.71875 
Q 8.5 49.078125 8.5 55.328125 
Q 8.5 64.0625 14.71875 69.140625 
Q 20.953125 74.21875 31.78125 74.21875 
Q 42.671875 74.21875 48.875 69.140625 
Q 55.078125 64.0625 55.078125 55.328125 
Q 55.078125 49.078125 51.53125 44.71875 
Q 48 40.375 41.703125 38.8125 
Q 48.828125 37.15625 52.796875 32.3125 
Q 56.78125 27.484375 56.78125 20.515625 
Q 56.78125 9.90625 50.3125 4.234375 
Q 43.84375 -1.421875 31.78125 -1.421875 
Q 19.734375 -1.421875 13.25 4.234375 
Q 6.78125 9.90625 6.78125 20.515625 
Q 6.78125 27.484375 10.78125 32.3125 
Q 14.796875 37.15625 21.921875 38.8125 
z
M 18.3125 54.390625 
Q 18.3125 48.734375 21.84375 45.5625 
Q 25.390625 42.390625 31.78125 42.390625 
Q 38.140625 42.390625 41.71875 45.5625 
Q 45.3125 48.734375 45.3125 54.390625 
Q 45.3125 60.0625 41.71875 63.234375 
Q 38.140625 66.40625 31.78125 66.40625 
Q 25.390625 66.40625 21.84375 63.234375 
Q 18.3125 60.0625 18.3125 54.390625 
z
" id="DejaVuSans-38"/>
      </defs>
      <g transform="translate(34.696875 196.352484)scale(0.1 -0.1)">
       <use xlink:href="#DejaVuSans-30"/>
       <use x="63.623047" xlink:href="#DejaVuSans-2e"/>
       <use x="95.410156" xlink:href="#DejaVuSans-38"/>
      </g>
     </g>
    </g>
    <g id="ytick_4">
     <g id="line2d_15">
      <g>
       <use style="stroke:#000000;stroke-width:0.8;" x="57.6" xlink:href="#mf761690493" y="144.500745"/>
      </g>
     </g>
     <g id="text_16">
      <!-- 1.0 -->
      <g transform="translate(34.696875 148.299964)scale(0.1 -0.1)">
       <use xlink:href="#DejaVuSans-31"/>
       <use x="63.623047" xlink:href="#DejaVuSans-2e"/>
       <use x="95.410156" xlink:href="#DejaVuSans-30"/>
      </g>
     </g>
    </g>
    <g id="ytick_5">
     <g id="line2d_16">
      <g>
       <use style="stroke:#000000;stroke-width:0.8;" x="57.6" xlink:href="#mf761690493" y="96.448225"/>
      </g>
     </g>
     <g id="text_17">
      <!-- 1.2 -->
      <g transform="translate(34.696875 100.247444)scale(0.1 -0.1)">
       <use xlink:href="#DejaVuSans-31"/>
       <use x="63.623047" xlink:href="#DejaVuSans-2e"/>
       <use x="95.410156" xlink:href="#DejaVuSans-32"/>
      </g>
     </g>
    </g>
    <g id="ytick_6">
     <g id="line2d_17">
      <g>
       <use style="stroke:#000000;stroke-width:0.8;" x="57.6" xlink:href="#mf761690493" y="48.395706"/>
      </g>
     </g>
     <g id="text_18">
      <!-- 1.4 -->
      <g transform="translate(34.696875 52.194924)scale(0.1 -0.1)">
       <use xlink:href="#DejaVuSans-31"/>
       <use x="63.623047" xlink:href="#DejaVuSans-2e"/>
       <use x="95.410156" xlink:href="#DejaVuSans-34"/>
      </g>
     </g>
    </g>
    <g id="text_19">
     <!-- Loss - Binary Crossentropy -->
     <defs>
      <path d="M 9.8125 72.90625 
L 19.671875 72.90625 
L 19.671875 8.296875 
L 55.171875 8.296875 
L 55.171875 0 
L 9.8125 0 
z
" id="DejaVuSans-4c"/>
      <path d="M 44.28125 53.078125 
L 44.28125 44.578125 
Q 40.484375 46.53125 36.375 47.5 
Q 32.28125 48.484375 27.875 48.484375 
Q 21.1875 48.484375 17.84375 46.4375 
Q 14.5 44.390625 14.5 40.28125 
Q 14.5 37.15625 16.890625 35.375 
Q 19.28125 33.59375 26.515625 31.984375 
L 29.59375 31.296875 
Q 39.15625 29.25 43.1875 25.515625 
Q 47.21875 21.78125 47.21875 15.09375 
Q 47.21875 7.46875 41.1875 3.015625 
Q 35.15625 -1.421875 24.609375 -1.421875 
Q 20.21875 -1.421875 15.453125 -0.5625 
Q 10.6875 0.296875 5.421875 2 
L 5.421875 11.28125 
Q 10.40625 8.6875 15.234375 7.390625 
Q 20.0625 6.109375 24.8125 6.109375 
Q 31.15625 6.109375 34.5625 8.28125 
Q 37.984375 10.453125 37.984375 14.40625 
Q 37.984375 18.0625 35.515625 20.015625 
Q 33.0625 21.96875 24.703125 23.78125 
L 21.578125 24.515625 
Q 13.234375 26.265625 9.515625 29.90625 
Q 5.8125 33.546875 5.8125 39.890625 
Q 5.8125 47.609375 11.28125 51.796875 
Q 16.75 56 26.8125 56 
Q 31.78125 56 36.171875 55.265625 
Q 40.578125 54.546875 44.28125 53.078125 
z
" id="DejaVuSans-73"/>
      <path id="DejaVuSans-20"/>
      <path d="M 4.890625 31.390625 
L 31.203125 31.390625 
L 31.203125 23.390625 
L 4.890625 23.390625 
z
" id="DejaVuSans-2d"/>
      <path d="M 19.671875 34.8125 
L 19.671875 8.109375 
L 35.5 8.109375 
Q 43.453125 8.109375 47.28125 11.40625 
Q 51.125 14.703125 51.125 21.484375 
Q 51.125 28.328125 47.28125 31.5625 
Q 43.453125 34.8125 35.5 34.8125 
z
M 19.671875 64.796875 
L 19.671875 42.828125 
L 34.28125 42.828125 
Q 41.5 42.828125 45.03125 45.53125 
Q 48.578125 48.25 48.578125 53.8125 
Q 48.578125 59.328125 45.03125 62.0625 
Q 41.5 64.796875 34.28125 64.796875 
z
M 9.8125 72.90625 
L 35.015625 72.90625 
Q 46.296875 72.90625 52.390625 68.21875 
Q 58.5 63.53125 58.5 54.890625 
Q 58.5 48.1875 55.375 44.234375 
Q 52.25 40.28125 46.1875 39.3125 
Q 53.46875 37.75 57.5 32.78125 
Q 61.53125 27.828125 61.53125 20.40625 
Q 61.53125 10.640625 54.890625 5.3125 
Q 48.25 0 35.984375 0 
L 9.8125 0 
z
" id="DejaVuSans-42"/>
      <path d="M 9.421875 54.6875 
L 18.40625 54.6875 
L 18.40625 0 
L 9.421875 0 
z
M 9.421875 75.984375 
L 18.40625 75.984375 
L 18.40625 64.59375 
L 9.421875 64.59375 
z
" id="DejaVuSans-69"/>
      <path d="M 54.890625 33.015625 
L 54.890625 0 
L 45.90625 0 
L 45.90625 32.71875 
Q 45.90625 40.484375 42.875 44.328125 
Q 39.84375 48.1875 33.796875 48.1875 
Q 26.515625 48.1875 22.3125 43.546875 
Q 18.109375 38.921875 18.109375 30.90625 
L 18.109375 0 
L 9.078125 0 
L 9.078125 54.6875 
L 18.109375 54.6875 
L 18.109375 46.1875 
Q 21.34375 51.125 25.703125 53.5625 
Q 30.078125 56 35.796875 56 
Q 45.21875 56 50.046875 50.171875 
Q 54.890625 44.34375 54.890625 33.015625 
z
" id="DejaVuSans-6e"/>
      <path d="M 34.28125 27.484375 
Q 23.390625 27.484375 19.1875 25 
Q 14.984375 22.515625 14.984375 16.5 
Q 14.984375 11.71875 18.140625 8.90625 
Q 21.296875 6.109375 26.703125 6.109375 
Q 34.1875 6.109375 38.703125 11.40625 
Q 43.21875 16.703125 43.21875 25.484375 
L 43.21875 27.484375 
z
M 52.203125 31.203125 
L 52.203125 0 
L 43.21875 0 
L 43.21875 8.296875 
Q 40.140625 3.328125 35.546875 0.953125 
Q 30.953125 -1.421875 24.3125 -1.421875 
Q 15.921875 -1.421875 10.953125 3.296875 
Q 6 8.015625 6 15.921875 
Q 6 25.140625 12.171875 29.828125 
Q 18.359375 34.515625 30.609375 34.515625 
L 43.21875 34.515625 
L 43.21875 35.40625 
Q 43.21875 41.609375 39.140625 45 
Q 35.0625 48.390625 27.6875 48.390625 
Q 23 48.390625 18.546875 47.265625 
Q 14.109375 46.140625 10.015625 43.890625 
L 10.015625 52.203125 
Q 14.9375 54.109375 19.578125 55.046875 
Q 24.21875 56 28.609375 56 
Q 40.484375 56 46.34375 49.84375 
Q 52.203125 43.703125 52.203125 31.203125 
z
" id="DejaVuSans-61"/>
      <path d="M 41.109375 46.296875 
Q 39.59375 47.171875 37.8125 47.578125 
Q 36.03125 48 33.890625 48 
Q 26.265625 48 22.1875 43.046875 
Q 18.109375 38.09375 18.109375 28.8125 
L 18.109375 0 
L 9.078125 0 
L 9.078125 54.6875 
L 18.109375 54.6875 
L 18.109375 46.1875 
Q 20.953125 51.171875 25.484375 53.578125 
Q 30.03125 56 36.53125 56 
Q 37.453125 56 38.578125 55.875 
Q 39.703125 55.765625 41.0625 55.515625 
z
" id="DejaVuSans-72"/>
      <path d="M 32.171875 -5.078125 
Q 28.375 -14.84375 24.75 -17.8125 
Q 21.140625 -20.796875 15.09375 -20.796875 
L 7.90625 -20.796875 
L 7.90625 -13.28125 
L 13.1875 -13.28125 
Q 16.890625 -13.28125 18.9375 -11.515625 
Q 21 -9.765625 23.484375 -3.21875 
L 25.09375 0.875 
L 2.984375 54.6875 
L 12.5 54.6875 
L 29.59375 11.921875 
L 46.6875 54.6875 
L 56.203125 54.6875 
z
" id="DejaVuSans-79"/>
      <path d="M 64.40625 67.28125 
L 64.40625 56.890625 
Q 59.421875 61.53125 53.78125 63.8125 
Q 48.140625 66.109375 41.796875 66.109375 
Q 29.296875 66.109375 22.65625 58.46875 
Q 16.015625 50.828125 16.015625 36.375 
Q 16.015625 21.96875 22.65625 14.328125 
Q 29.296875 6.6875 41.796875 6.6875 
Q 48.140625 6.6875 53.78125 8.984375 
Q 59.421875 11.28125 64.40625 15.921875 
L 64.40625 5.609375 
Q 59.234375 2.09375 53.4375 0.328125 
Q 47.65625 -1.421875 41.21875 -1.421875 
Q 24.65625 -1.421875 15.125 8.703125 
Q 5.609375 18.84375 5.609375 36.375 
Q 5.609375 53.953125 15.125 64.078125 
Q 24.65625 74.21875 41.21875 74.21875 
Q 47.75 74.21875 53.53125 72.484375 
Q 59.328125 70.75 64.40625 67.28125 
z
" id="DejaVuSans-43"/>
      <path d="M 56.203125 29.59375 
L 56.203125 25.203125 
L 14.890625 25.203125 
Q 15.484375 15.921875 20.484375 11.0625 
Q 25.484375 6.203125 34.421875 6.203125 
Q 39.59375 6.203125 44.453125 7.46875 
Q 49.3125 8.734375 54.109375 11.28125 
L 54.109375 2.78125 
Q 49.265625 0.734375 44.1875 -0.34375 
Q 39.109375 -1.421875 33.890625 -1.421875 
Q 20.796875 -1.421875 13.15625 6.1875 
Q 5.515625 13.8125 5.515625 26.8125 
Q 5.515625 40.234375 12.765625 48.109375 
Q 20.015625 56 32.328125 56 
Q 43.359375 56 49.78125 48.890625 
Q 56.203125 41.796875 56.203125 29.59375 
z
M 47.21875 32.234375 
Q 47.125 39.59375 43.09375 43.984375 
Q 39.0625 48.390625 32.421875 48.390625 
Q 24.90625 48.390625 20.390625 44.140625 
Q 15.875 39.890625 15.1875 32.171875 
z
" id="DejaVuSans-65"/>
      <path d="M 18.3125 70.21875 
L 18.3125 54.6875 
L 36.8125 54.6875 
L 36.8125 47.703125 
L 18.3125 47.703125 
L 18.3125 18.015625 
Q 18.3125 11.328125 20.140625 9.421875 
Q 21.96875 7.515625 27.59375 7.515625 
L 36.8125 7.515625 
L 36.8125 0 
L 27.59375 0 
Q 17.1875 0 13.234375 3.875 
Q 9.28125 7.765625 9.28125 18.015625 
L 9.28125 47.703125 
L 2.6875 47.703125 
L 2.6875 54.6875 
L 9.28125 54.6875 
L 9.28125 70.21875 
z
" id="DejaVuSans-74"/>
     </defs>
     <g transform="translate(28.617187 241.486594)rotate(-90)scale(0.1 -0.1)">
      <use xlink:href="#DejaVuSans-4c"/>
      <use x="55.697266" xlink:href="#DejaVuSans-6f"/>
      <use x="116.878906" xlink:href="#DejaVuSans-73"/>
      <use x="168.978516" xlink:href="#DejaVuSans-73"/>
      <use x="221.078125" xlink:href="#DejaVuSans-20"/>
      <use x="252.865234" xlink:href="#DejaVuSans-2d"/>
      <use x="288.949219" xlink:href="#DejaVuSans-20"/>
      <use x="320.736328" xlink:href="#DejaVuSans-42"/>
      <use x="389.339844" xlink:href="#DejaVuSans-69"/>
      <use x="417.123047" xlink:href="#DejaVuSans-6e"/>
      <use x="480.501953" xlink:href="#DejaVuSans-61"/>
      <use x="541.78125" xlink:href="#DejaVuSans-72"/>
      <use x="582.894531" xlink:href="#DejaVuSans-79"/>
      <use x="642.074219" xlink:href="#DejaVuSans-20"/>
      <use x="673.861328" xlink:href="#DejaVuSans-43"/>
      <use x="743.685547" xlink:href="#DejaVuSans-72"/>
      <use x="784.767578" xlink:href="#DejaVuSans-6f"/>
      <use x="845.949219" xlink:href="#DejaVuSans-73"/>
      <use x="898.048828" xlink:href="#DejaVuSans-73"/>
      <use x="950.148438" xlink:href="#DejaVuSans-65"/>
      <use x="1011.671875" xlink:href="#DejaVuSans-6e"/>
      <use x="1075.050781" xlink:href="#DejaVuSans-74"/>
      <use x="1114.259766" xlink:href="#DejaVuSans-72"/>
      <use x="1155.341797" xlink:href="#DejaVuSans-6f"/>
      <use x="1216.523438" xlink:href="#DejaVuSans-70"/>
      <use x="1280" xlink:href="#DejaVuSans-79"/>
     </g>
    </g>
   </g>
   <g id="line2d_18">
    <path clip-path="url(#pcb226380f3)" d="M 73.832727 221.843928 
L 75.136561 163.221754 
L 76.440394 211.457305 
L 77.744228 240.29446 
L 79.048061 243.292828 
L 80.351895 244.910487 
L 81.655728 241.042233 
L 82.959562 242.114572 
L 84.263395 245.046262 
L 85.567229 244.660747 
L 86.871062 244.609407 
L 88.174896 240.824242 
L 89.478729 243.071844 
L 90.782563 248.061271 
L 92.086396 244.793945 
L 93.39023 241.99001 
L 94.694064 242.601865 
L 95.997897 247.962286 
L 97.301731 53.568 
L 98.605564 243.916984 
L 99.909398 245.109302 
L 101.213231 239.526781 
L 102.517065 240.782526 
L 103.820898 245.798289 
L 106.428565 246.818214 
L 109.036232 245.374537 
L 110.340066 237.261536 
L 112.947733 230.944045 
L 114.251566 231.4452 
L 115.5554 227.8968 
L 116.859233 238.463536 
L 118.163067 238.136793 
L 119.4669 235.615837 
L 120.770734 233.610299 
L 122.074567 232.372183 
L 123.378401 230.778869 
L 124.682234 234.108089 
L 125.986068 227.347871 
L 127.289901 223.701761 
L 128.593735 224.130739 
L 129.897568 225.088183 
L 131.201402 230.776535 
L 132.505235 231.205914 
L 133.809069 229.513472 
L 135.112903 222.908147 
L 136.416736 227.942641 
L 137.72057 225.313778 
L 139.024403 228.395621 
L 140.328237 228.510803 
L 141.63207 224.88404 
L 142.935904 229.380117 
L 144.239737 235.985943 
L 145.543571 235.768081 
L 146.847404 233.752018 
L 148.151238 238.221586 
L 149.455071 240.485542 
L 150.758905 237.894572 
L 152.062738 237.399216 
L 153.366572 244.09406 
L 155.974239 242.93362 
L 157.278072 244.353896 
L 158.581906 242.970524 
L 159.885739 238.69546 
L 161.189573 244.020337 
L 162.493406 245.960715 
L 163.79724 241.454786 
L 165.101073 240.529679 
L 166.404907 238.893445 
L 167.70874 240.230418 
L 169.012574 237.046925 
L 170.316407 232.203757 
L 171.620241 240.618238 
L 172.924074 247.285013 
L 174.227908 233.275394 
L 175.531742 242.89577 
L 176.835575 243.736499 
L 178.139409 243.015363 
L 180.747076 242.844602 
L 182.050909 242.53851 
L 183.354743 247.878795 
L 184.658576 242.968963 
L 185.96241 238.759345 
L 187.266243 241.937611 
L 188.570077 236.583391 
L 189.87391 233.00751 
L 191.177744 230.005662 
L 192.481577 232.519959 
L 193.785411 235.5132 
L 195.089244 240.512923 
L 196.393078 244.45271 
L 197.696911 239.794737 
L 199.000745 230.835078 
L 200.304578 230.323741 
L 201.608412 229.966652 
L 202.912245 236.693303 
L 204.216079 236.653892 
L 205.519912 238.094805 
L 206.823746 234.799195 
L 208.127579 243.463474 
L 209.431413 235.320328 
L 210.735246 234.476935 
L 212.03908 241.819937 
L 213.342913 243.251541 
L 214.646747 243.860302 
L 215.950581 243.650976 
L 217.254414 248.753938 
L 218.558248 246.886653 
L 219.862081 240.24998 
L 221.165915 247.25252 
L 222.469748 248.422684 
L 223.773582 244.156069 
L 226.381249 247.65459 
L 227.685082 254.247684 
L 228.988916 251.330501 
L 230.292749 246.333828 
L 231.596583 248.972429 
L 232.900416 246.074465 
L 234.20425 236.999008 
L 235.508083 230.559761 
L 236.811917 227.065909 
L 238.11575 236.842282 
L 239.419584 237.172705 
L 240.723417 239.835938 
L 242.027251 242.786818 
L 243.331084 235.453124 
L 244.634918 231.751922 
L 245.938751 230.423528 
L 247.242585 233.063862 
L 248.546418 243.61937 
L 249.850252 243.413881 
L 251.154085 235.914468 
L 252.457919 242.197661 
L 253.761752 240.875353 
L 255.065586 245.830195 
L 256.369419 243.567214 
L 257.673253 237.587334 
L 258.977087 240.023067 
L 260.28092 244.481695 
L 261.584754 244.342927 
L 262.888587 240.185178 
L 264.192421 241.997543 
L 265.496254 246.481361 
L 266.800088 245.958323 
L 268.103921 246.563089 
L 269.407755 245.409408 
L 270.711588 242.868747 
L 272.015422 236.320404 
L 273.319255 237.918473 
L 275.926922 247.097383 
L 277.230756 245.303549 
L 278.534589 244.237425 
L 279.838423 248.82335 
L 281.142256 247.098901 
L 282.44609 243.375 
L 283.749923 245.834363 
L 285.053757 247.732523 
L 286.35759 243.972019 
L 287.661424 248.023049 
L 288.965257 240.475088 
L 290.269091 238.333403 
L 291.572924 237.350855 
L 292.876758 239.47716 
L 295.484425 247.90274 
L 296.788258 242.306428 
L 298.092092 244.269647 
L 299.395926 251.002255 
L 300.699759 250.676558 
L 302.003593 246.704607 
L 303.307426 250.233516 
L 304.61126 248.355892 
L 305.915093 247.750825 
L 307.218927 246.671755 
L 308.52276 246.659239 
L 309.826594 251.320305 
L 311.130427 252.910869 
L 312.434261 249.602629 
L 313.738094 243.614959 
L 315.041928 242.244376 
L 316.345761 241.4664 
L 317.649595 239.766181 
L 318.953428 244.040787 
L 320.257262 250.707734 
L 321.561095 243.228943 
L 322.864929 243.527731 
L 324.168762 249.218976 
L 325.472596 247.268516 
L 326.776429 238.244614 
L 328.080263 245.204464 
L 329.384096 245.973861 
L 330.68793 238.358765 
L 331.991763 246.293916 
L 333.295597 248.928579 
L 334.59943 240.865859 
L 335.903264 241.502345 
L 337.207097 244.220656 
L 338.510931 239.351581 
L 341.118598 242.702268 
L 342.422432 241.20105 
L 343.726265 239.391106 
L 345.030099 240.04979 
L 346.333932 242.653362 
L 347.637766 243.598648 
L 348.941599 245.933319 
L 350.245433 247.234719 
L 351.549266 241.674796 
L 352.8531 249.547795 
L 354.156933 245.861587 
L 355.460767 247.177665 
L 356.7646 250.960768 
L 358.068434 249.973036 
L 359.372267 252.154919 
L 360.676101 247.597235 
L 361.979934 243.881297 
L 363.283768 252.220036 
L 364.587601 251.777925 
L 365.891435 247.700946 
L 367.195268 251.569959 
L 368.499102 252.331193 
L 369.802935 245.228136 
L 371.106769 250.187131 
L 372.410602 249.625542 
L 373.714436 249.713515 
L 375.018269 249.221009 
L 376.322103 250.803039 
L 377.625936 248.504928 
L 378.92977 244.879497 
L 380.233604 245.218355 
L 381.537437 254.199137 
L 382.841271 250.15143 
L 384.145104 249.027393 
L 385.448938 249.492975 
L 386.752771 251.533298 
L 388.056605 251.677622 
L 389.360438 250.448227 
L 390.664272 254.332163 
L 391.968105 254.11327 
L 393.271939 251.596767 
L 394.575772 251.073916 
L 395.879606 252.756119 
L 397.183439 251.430016 
L 398.487273 247.149424 
L 398.487273 247.149424 
" style="fill:none;stroke:#1f77b4;stroke-linecap:square;stroke-width:1.5;"/>
   </g>
   <g id="line2d_19">
    <path clip-path="url(#pcb226380f3)" d="M 73.832727 224.320121 
L 75.136561 282.404393 
L 76.440394 284.938955 
L 77.744228 281.606068 
L 79.048061 282.161786 
L 80.351895 280.475205 
L 81.655728 285.015517 
L 82.959562 284.179366 
L 84.263395 286.844498 
L 85.567229 286.951186 
L 86.871062 288.408169 
L 88.174896 289.261011 
L 90.782563 291.525521 
L 92.086396 286.900383 
L 93.39023 284.646716 
L 94.694064 290.345956 
L 95.997897 286.70324 
L 97.301731 289.14403 
L 98.605564 280.842964 
L 99.909398 287.95307 
L 101.213231 287.536164 
L 102.517065 286.691472 
L 103.820898 287.931522 
L 105.124732 289.597505 
L 106.428565 289.899665 
L 107.732399 291.145265 
L 109.036232 291.317134 
L 110.340066 292.326897 
L 111.643899 290.729283 
L 112.947733 292.424314 
L 115.5554 289.557754 
L 116.859233 288.613583 
L 118.163067 290.235694 
L 119.4669 291.275385 
L 120.770734 291.131723 
L 122.074567 289.24978 
L 123.378401 288.875086 
L 124.682234 289.951233 
L 125.986068 292.33629 
L 127.289901 292.231144 
L 128.593735 290.45374 
L 129.897568 290.02264 
L 131.201402 289.910688 
L 132.505235 291.103669 
L 133.809069 291.68125 
L 135.112903 291.865049 
L 136.416736 291.431199 
L 137.72057 289.845447 
L 139.024403 290.455343 
L 140.328237 290.890387 
L 141.63207 289.553015 
L 142.935904 288.673178 
L 144.239737 287.182696 
L 145.543571 289.842464 
L 146.847404 287.92033 
L 148.151238 288.32167 
L 149.455071 289.583546 
L 150.758905 289.880285 
L 152.062738 291.004115 
L 153.366572 290.278159 
L 154.670405 289.318263 
L 155.974239 289.088685 
L 157.278072 290.187303 
L 158.581906 289.449106 
L 159.885739 289.676599 
L 161.189573 290.113068 
L 162.493406 290.178722 
L 163.79724 291.530203 
L 165.101073 290.596671 
L 166.404907 290.216595 
L 167.70874 291.988567 
L 169.012574 291.211536 
L 170.316407 288.990392 
L 171.620241 289.189471 
L 172.924074 289.059089 
L 174.227908 289.608315 
L 175.531742 289.626808 
L 176.835575 291.481299 
L 178.139409 291.759646 
L 179.443242 291.088654 
L 180.747076 290.619733 
L 182.050909 290.772397 
L 183.354743 291.195725 
L 184.658576 290.314126 
L 185.96241 291.80931 
L 187.266243 291.678703 
L 188.570077 292.183799 
L 189.87391 290.330092 
L 191.177744 287.934021 
L 192.481577 292.61101 
L 193.785411 291.572738 
L 195.089244 290.676895 
L 196.393078 291.666791 
L 197.696911 291.939115 
L 200.304578 291.647814 
L 201.608412 290.444924 
L 202.912245 288.35119 
L 204.216079 291.60587 
L 205.519912 289.343765 
L 206.823746 289.679937 
L 208.127579 291.658417 
L 209.431413 291.221814 
L 210.735246 293.266655 
L 212.03908 291.758368 
L 213.342913 290.654658 
L 214.646747 290.81441 
L 215.950581 290.452009 
L 217.254414 291.91365 
L 218.558248 293.10285 
L 219.862081 292.442433 
L 221.165915 293.051075 
L 222.469748 292.017645 
L 223.773582 293.141948 
L 225.077415 292.371745 
L 226.381249 292.089482 
L 227.685082 293.337983 
L 228.988916 292.880474 
L 230.292749 292.912739 
L 231.596583 294.087825 
L 232.900416 293.533212 
L 234.20425 293.157806 
L 235.508083 288.825344 
L 236.811917 288.555828 
L 238.11575 286.427588 
L 239.419584 285.413913 
L 240.723417 285.096073 
L 242.027251 286.046098 
L 243.331084 288.554548 
L 244.634918 289.422727 
L 245.938751 285.693513 
L 247.242585 285.348338 
L 248.546418 284.883954 
L 249.850252 284.869246 
L 251.154085 285.6425 
L 255.065586 289.90741 
L 256.369419 290.846234 
L 257.673253 290.567503 
L 258.977087 288.49159 
L 260.28092 289.299426 
L 261.584754 289.826939 
L 262.888587 289.196608 
L 264.192421 289.637461 
L 265.496254 290.494908 
L 266.800088 291.531217 
L 268.103921 291.883237 
L 269.407755 293.479732 
L 270.711588 292.803524 
L 272.015422 292.325203 
L 273.319255 289.880447 
L 274.623089 288.542735 
L 275.926922 289.190388 
L 277.230756 289.416621 
L 278.534589 290.280688 
L 281.142256 292.322348 
L 282.44609 292.311008 
L 283.749923 293.260947 
L 285.053757 293.769582 
L 286.35759 293.579959 
L 287.661424 293.53859 
L 288.965257 294.666366 
L 292.876758 288.7327 
L 294.180591 288.064081 
L 295.484425 287.976849 
L 296.788258 288.835936 
L 298.092092 289.865981 
L 299.395926 291.356943 
L 300.699759 291.340439 
L 302.003593 292.321543 
L 303.307426 292.644827 
L 304.61126 292.108179 
L 307.218927 291.360665 
L 308.52276 291.361087 
L 311.130427 292.774578 
L 313.738094 293.463049 
L 315.041928 292.142598 
L 316.345761 290.530276 
L 317.649595 288.242031 
L 318.953428 288.649454 
L 320.257262 288.611138 
L 321.561095 290.261691 
L 322.864929 291.168265 
L 324.168762 292.765796 
L 325.472596 293.227164 
L 326.776429 293.009202 
L 329.384096 290.719214 
L 330.68793 290.428805 
L 331.991763 291.08988 
L 333.295597 290.676582 
L 334.59943 292.269181 
L 335.903264 292.18823 
L 337.207097 294.686643 
L 338.510931 294.917496 
L 341.118598 294.102617 
L 342.422432 291.582903 
L 345.030099 292.036304 
L 346.333932 291.032928 
L 347.637766 288.306725 
L 348.941599 289.806924 
L 350.245433 287.301763 
L 352.8531 289.002615 
L 355.460767 291.098579 
L 356.7646 292.110711 
L 358.068434 293.307245 
L 359.372267 294.222752 
L 360.676101 292.969928 
L 361.979934 292.342549 
L 363.283768 293.220318 
L 364.587601 292.646969 
L 365.891435 293.593226 
L 367.195268 293.604726 
L 368.499102 293.481395 
L 369.802935 294.074063 
L 371.106769 293.826832 
L 372.410602 294.754881 
L 373.714436 294.852789 
L 375.018269 294.049899 
L 376.322103 294.493526 
L 377.625936 294.024101 
L 378.92977 292.922312 
L 380.233604 292.693761 
L 381.537437 293.275404 
L 382.841271 293.419829 
L 384.145104 293.935162 
L 385.448938 294.116866 
L 388.056605 294.878278 
L 389.360438 294.983997 
L 390.664272 295.328986 
L 391.968105 294.945612 
L 393.271939 295.488 
L 394.575772 295.379518 
L 395.879606 295.026212 
L 397.183439 294.179854 
L 398.487273 293.762808 
L 398.487273 293.762808 
" style="fill:none;stroke:#ff7f0e;stroke-linecap:square;stroke-width:1.5;"/>
   </g>
   <g id="patch_3">
    <path d="M 57.6 307.584 
L 57.6 41.472 
" style="fill:none;stroke:#000000;stroke-linecap:square;stroke-linejoin:miter;stroke-width:0.8;"/>
   </g>
   <g id="patch_4">
    <path d="M 414.72 307.584 
L 414.72 41.472 
" style="fill:none;stroke:#000000;stroke-linecap:square;stroke-linejoin:miter;stroke-width:0.8;"/>
   </g>
   <g id="patch_5">
    <path d="M 57.6 307.584 
L 414.72 307.584 
" style="fill:none;stroke:#000000;stroke-linecap:square;stroke-linejoin:miter;stroke-width:0.8;"/>
   </g>
   <g id="patch_6">
    <path d="M 57.6 41.472 
L 414.72 41.472 
" style="fill:none;stroke:#000000;stroke-linecap:square;stroke-linejoin:miter;stroke-width:0.8;"/>
   </g>
   <g id="text_20">
    <!-- Dense Neural Net Loss -->
    <defs>
     <path d="M 19.671875 64.796875 
L 19.671875 8.109375 
L 31.59375 8.109375 
Q 46.6875 8.109375 53.6875 14.9375 
Q 60.6875 21.78125 60.6875 36.53125 
Q 60.6875 51.171875 53.6875 57.984375 
Q 46.6875 64.796875 31.59375 64.796875 
z
M 9.8125 72.90625 
L 30.078125 72.90625 
Q 51.265625 72.90625 61.171875 64.09375 
Q 71.09375 55.28125 71.09375 36.53125 
Q 71.09375 17.671875 61.125 8.828125 
Q 51.171875 0 30.078125 0 
L 9.8125 0 
z
" id="DejaVuSans-44"/>
     <path d="M 9.8125 72.90625 
L 23.09375 72.90625 
L 55.421875 11.921875 
L 55.421875 72.90625 
L 64.984375 72.90625 
L 64.984375 0 
L 51.703125 0 
L 19.390625 60.984375 
L 19.390625 0 
L 9.8125 0 
z
" id="DejaVuSans-4e"/>
     <path d="M 8.5 21.578125 
L 8.5 54.6875 
L 17.484375 54.6875 
L 17.484375 21.921875 
Q 17.484375 14.15625 20.5 10.265625 
Q 23.53125 6.390625 29.59375 6.390625 
Q 36.859375 6.390625 41.078125 11.03125 
Q 45.3125 15.671875 45.3125 23.6875 
L 45.3125 54.6875 
L 54.296875 54.6875 
L 54.296875 0 
L 45.3125 0 
L 45.3125 8.40625 
Q 42.046875 3.421875 37.71875 1 
Q 33.40625 -1.421875 27.6875 -1.421875 
Q 18.265625 -1.421875 13.375 4.4375 
Q 8.5 10.296875 8.5 21.578125 
z
M 31.109375 56 
z
" id="DejaVuSans-75"/>
     <path d="M 9.421875 75.984375 
L 18.40625 75.984375 
L 18.40625 0 
L 9.421875 0 
z
" id="DejaVuSans-6c"/>
    </defs>
    <g transform="translate(167.916562 35.472)scale(0.12 -0.12)">
     <use xlink:href="#DejaVuSans-44"/>
     <use x="77.001953" xlink:href="#DejaVuSans-65"/>
     <use x="138.525391" xlink:href="#DejaVuSans-6e"/>
     <use x="201.904297" xlink:href="#DejaVuSans-73"/>
     <use x="254.003906" xlink:href="#DejaVuSans-65"/>
     <use x="315.527344" xlink:href="#DejaVuSans-20"/>
     <use x="347.314453" xlink:href="#DejaVuSans-4e"/>
     <use x="422.119141" xlink:href="#DejaVuSans-65"/>
     <use x="483.642578" xlink:href="#DejaVuSans-75"/>
     <use x="547.021484" xlink:href="#DejaVuSans-72"/>
     <use x="588.134766" xlink:href="#DejaVuSans-61"/>
     <use x="649.414062" xlink:href="#DejaVuSans-6c"/>
     <use x="677.197266" xlink:href="#DejaVuSans-20"/>
     <use x="708.984375" xlink:href="#DejaVuSans-4e"/>
     <use x="783.789062" xlink:href="#DejaVuSans-65"/>
     <use x="845.3125" xlink:href="#DejaVuSans-74"/>
     <use x="884.521484" xlink:href="#DejaVuSans-20"/>
     <use x="916.308594" xlink:href="#DejaVuSans-4c"/>
     <use x="972.005859" xlink:href="#DejaVuSans-6f"/>
     <use x="1033.1875" xlink:href="#DejaVuSans-73"/>
     <use x="1085.287109" xlink:href="#DejaVuSans-73"/>
    </g>
   </g>
   <g id="legend_1">
    <g id="patch_7">
     <path d="M 326.485625 78.82825 
L 407.72 78.82825 
Q 409.72 78.82825 409.72 76.82825 
L 409.72 48.472 
Q 409.72 46.472 407.72 46.472 
L 326.485625 46.472 
Q 324.485625 46.472 324.485625 48.472 
L 324.485625 76.82825 
Q 324.485625 78.82825 326.485625 78.82825 
z
" style="fill:#ffffff;opacity:0.8;stroke:#cccccc;stroke-linejoin:miter;"/>
    </g>
    <g id="line2d_20">
     <path d="M 328.485625 54.570437 
L 348.485625 54.570437 
" style="fill:none;stroke:#1f77b4;stroke-linecap:square;stroke-width:1.5;"/>
    </g>
    <g id="line2d_21"/>
    <g id="text_21">
     <!-- validation -->
     <defs>
      <path d="M 2.984375 54.6875 
L 12.5 54.6875 
L 29.59375 8.796875 
L 46.6875 54.6875 
L 56.203125 54.6875 
L 35.6875 0 
L 23.484375 0 
z
" id="DejaVuSans-76"/>
      <path d="M 45.40625 46.390625 
L 45.40625 75.984375 
L 54.390625 75.984375 
L 54.390625 0 
L 45.40625 0 
L 45.40625 8.203125 
Q 42.578125 3.328125 38.25 0.953125 
Q 33.9375 -1.421875 27.875 -1.421875 
Q 17.96875 -1.421875 11.734375 6.484375 
Q 5.515625 14.40625 5.515625 27.296875 
Q 5.515625 40.1875 11.734375 48.09375 
Q 17.96875 56 27.875 56 
Q 33.9375 56 38.25 53.625 
Q 42.578125 51.265625 45.40625 46.390625 
z
M 14.796875 27.296875 
Q 14.796875 17.390625 18.875 11.75 
Q 22.953125 6.109375 30.078125 6.109375 
Q 37.203125 6.109375 41.296875 11.75 
Q 45.40625 17.390625 45.40625 27.296875 
Q 45.40625 37.203125 41.296875 42.84375 
Q 37.203125 48.484375 30.078125 48.484375 
Q 22.953125 48.484375 18.875 42.84375 
Q 14.796875 37.203125 14.796875 27.296875 
z
" id="DejaVuSans-64"/>
     </defs>
     <g transform="translate(356.485625 58.070437)scale(0.1 -0.1)">
      <use xlink:href="#DejaVuSans-76"/>
      <use x="59.179688" xlink:href="#DejaVuSans-61"/>
      <use x="120.458984" xlink:href="#DejaVuSans-6c"/>
      <use x="148.242188" xlink:href="#DejaVuSans-69"/>
      <use x="176.025391" xlink:href="#DejaVuSans-64"/>
      <use x="239.501953" xlink:href="#DejaVuSans-61"/>
      <use x="300.78125" xlink:href="#DejaVuSans-74"/>
      <use x="339.990234" xlink:href="#DejaVuSans-69"/>
      <use x="367.773438" xlink:href="#DejaVuSans-6f"/>
      <use x="428.955078" xlink:href="#DejaVuSans-6e"/>
     </g>
    </g>
    <g id="line2d_22">
     <path d="M 328.485625 69.248562 
L 348.485625 69.248562 
" style="fill:none;stroke:#ff7f0e;stroke-linecap:square;stroke-width:1.5;"/>
    </g>
    <g id="line2d_23"/>
    <g id="text_22">
     <!-- train -->
     <g transform="translate(356.485625 72.748562)scale(0.1 -0.1)">
      <use xlink:href="#DejaVuSans-74"/>
      <use x="39.208984" xlink:href="#DejaVuSans-72"/>
      <use x="80.322266" xlink:href="#DejaVuSans-61"/>
      <use x="141.601562" xlink:href="#DejaVuSans-69"/>
      <use x="169.384766" xlink:href="#DejaVuSans-6e"/>
     </g>
    </g>
   </g>
  </g>
 </g>
 <defs>
  <clipPath id="pcb226380f3">
   <rect height="266.112" width="357.12" x="57.6" y="41.472"/>
  </clipPath>
 </defs>
</svg>
